<svg width="80" height="80" viewBox="0 0 80 80" fill="none" xmlns="http://www.w3.org/2000/svg">
  <defs>
    <linearGradient id="ecommerce-gradient" x1="0%" y1="0%" x2="100%" y2="100%">
      <stop offset="0%" stop-color="#ec4899" />
      <stop offset="100%" stop-color="#e11d48" />
    </linearGradient>
  </defs>
  
  <!-- Shopping bag base -->
  <path d="M20 25 L60 25 L58 65 L22 65 Z" fill="url(#ecommerce-gradient)" opacity="0.2"/>
  <path d="M20 25 L60 25 L58 65 L22 65 Z" stroke="url(#ecommerce-gradient)" stroke-width="2" fill="none"/>
  
  <!-- Shopping bag handles -->
  <path d="M30 25 L30 20 C30 15 35 10 40 10 C45 10 50 15 50 20 L50 25" stroke="url(#ecommerce-gradient)" stroke-width="2" fill="none"/>
  
  <!-- Shopping items inside -->
  <rect x="28" y="35" width="8" height="8" fill="url(#ecommerce-gradient)" opacity="0.6" rx="1"/>
  <rect x="44" y="35" width="8" height="8" fill="url(#ecommerce-gradient)" opacity="0.6" rx="1"/>
  <rect x="36" y="47" width="8" height="8" fill="url(#ecommerce-gradient)" opacity="0.6" rx="1"/>
  
  <!-- Sparkle effects -->
  <circle cx="65" cy="20" r="2" fill="url(#ecommerce-gradient)" opacity="0.8">
    <animate attributeName="opacity" values="0.8;0.3;0.8" dur="2s" repeatCount="indefinite"/>
  </circle>
  <circle cx="15" cy="35" r="1.5" fill="url(#ecommerce-gradient)" opacity="0.6">
    <animate attributeName="opacity" values="0.6;0.2;0.6" dur="2.5s" repeatCount="indefinite"/>
  </circle>
  <circle cx="68" cy="55" r="1" fill="url(#ecommerce-gradient)" opacity="0.7">
    <animate attributeName="opacity" values="0.7;0.3;0.7" dur="1.8s" repeatCount="indefinite"/>
  </circle>
</svg>