<svg width="80" height="80" viewBox="0 0 80 80" fill="none" xmlns="http://www.w3.org/2000/svg">
  <defs>
    <linearGradient id="education-gradient" x1="0%" y1="0%" x2="100%" y2="100%">
      <stop offset="0%" stop-color="#06b6d4" />
      <stop offset="100%" stop-color="#3b82f6" />
    </linearGradient>
  </defs>
  
  <!-- Graduation cap base -->
  <ellipse cx="40" cy="35" rx="25" ry="8" fill="url(#education-gradient)" opacity="0.3"/>
  <ellipse cx="40" cy="35" rx="25" ry="8" stroke="url(#education-gradient)" stroke-width="2" fill="none"/>
  
  <!-- Graduation cap top -->
  <ellipse cx="40" cy="30" rx="25" ry="8" fill="url(#education-gradient)" opacity="0.6"/>
  <ellipse cx="40" cy="30" rx="25" ry="8" stroke="url(#education-gradient)" stroke-width="2" fill="none"/>
  
  <!-- Graduation cap button -->
  <circle cx="40" cy="30" r="3" fill="url(#education-gradient)"/>
  
  <!-- Tassel -->
  <g transform="translate(50, 25)">
    <line x1="0" y1="0" x2="8" y2="8" stroke="url(#education-gradient)" stroke-width="2"/>
    <circle cx="8" cy="8" r="2" fill="url(#education-gradient)">
      <animateTransform attributeName="transform" type="rotate" values="0 8 8;10 8 8;-10 8 8;0 8 8" dur="3s" repeatCount="indefinite"/>
    </circle>
    <!-- Tassel strings -->
    <line x1="8" y1="10" x2="6" y2="14" stroke="url(#education-gradient)" stroke-width="1" opacity="0.7"/>
    <line x1="8" y1="10" x2="10" y2="14" stroke="url(#education-gradient)" stroke-width="1" opacity="0.7"/>
    <line x1="8" y1="10" x2="8" y2="15" stroke="url(#education-gradient)" stroke-width="1" opacity="0.7"/>
  </g>
  
  <!-- Book -->
  <g transform="translate(15, 45)">
    <rect x="0" y="0" width="15" height="20" fill="url(#education-gradient)" opacity="0.4" rx="1"/>
    <rect x="0" y="0" width="15" height="20" stroke="url(#education-gradient)" stroke-width="2" fill="none" rx="1"/>
    <line x1="0" y1="5" x2="15" y2="5" stroke="url(#education-gradient)" stroke-width="1" opacity="0.6"/>
    <line x1="3" y1="8" x2="12" y2="8" stroke="url(#education-gradient)" stroke-width="1" opacity="0.5"/>
    <line x1="3" y1="11" x2="12" y2="11" stroke="url(#education-gradient)" stroke-width="1" opacity="0.5"/>
    <line x1="3" y1="14" x2="9" y2="14" stroke="url(#education-gradient)" stroke-width="1" opacity="0.5"/>
  </g>
  
  <!-- Laptop/Computer -->
  <g transform="translate(45, 50)">
    <!-- Screen -->
    <rect x="0" y="0" width="20" height="12" fill="url(#education-gradient)" opacity="0.2" rx="1"/>
    <rect x="0" y="0" width="20" height="12" stroke="url(#education-gradient)" stroke-width="2" fill="none" rx="1"/>
    <!-- Screen content -->
    <rect x="2" y="2" width="16" height="8" fill="url(#education-gradient)" opacity="0.4"/>
    <line x1="4" y1="4" x2="16" y2="4" stroke="#ffffff" stroke-width="1" opacity="0.8"/>
    <line x1="4" y1="6" x2="14" y2="6" stroke="#ffffff" stroke-width="1" opacity="0.6"/>
    <line x1="4" y1="8" x2="12" y2="8" stroke="#ffffff" stroke-width="1" opacity="0.6"/>
    
    <!-- Keyboard base -->
    <ellipse cx="10" cy="14" rx="12" ry="2" fill="url(#education-gradient)" opacity="0.5"/>
    <ellipse cx="10" cy="14" rx="12" ry="2" stroke="url(#education-gradient)" stroke-width="1" fill="none"/>
  </g>
  
  <!-- Knowledge symbols floating -->
  <g opacity="0.6">
    <!-- Mathematical symbols -->
    <text x="65" y="20" fill="url(#education-gradient)" font-size="12" font-weight="bold">∑</text>
    <text x="10" y="25" fill="url(#education-gradient)" font-size="10" font-weight="bold">π</text>
    <text x="70" y="65" fill="url(#education-gradient)" font-size="8" font-weight="bold">∞</text>
    
    <!-- Animated floating effect -->
    <circle cx="65" cy="15" r="1" fill="url(#education-gradient)">
      <animate attributeName="cy" values="15;10;15" dur="2s" repeatCount="indefinite"/>
      <animate attributeName="opacity" values="0.6;0.2;0.6" dur="2s" repeatCount="indefinite"/>
    </circle>
    <circle cx="10" cy="20" r="1" fill="url(#education-gradient)">
      <animate attributeName="cy" values="20;15;20" dur="2.5s" repeatCount="indefinite"/>
      <animate attributeName="opacity" values="0.6;0.2;0.6" dur="2.5s" repeatCount="indefinite"/>
    </circle>
  </g>
  
  <!-- Light bulb (idea) -->
  <g transform="translate(60, 35)" opacity="0.7">
    <circle cx="5" cy="8" r="4" fill="url(#education-gradient)" opacity="0.3"/>
    <rect x="3" y="11" width="4" height="2" fill="url(#education-gradient)" opacity="0.6" rx="1"/>
    <line x1="5" y1="13" x2="5" y2="15" stroke="url(#education-gradient)" stroke-width="1"/>
    <!-- Light rays -->
    <g opacity="0.8">
      <line x1="5" y1="2" x2="5" y2="0" stroke="url(#education-gradient)" stroke-width="1">
        <animate attributeName="opacity" values="0.8;0.3;0.8" dur="1.5s" repeatCount="indefinite"/>
      </line>
      <line x1="9" y1="4" x2="11" y2="2" stroke="url(#education-gradient)" stroke-width="1">
        <animate attributeName="opacity" values="0.8;0.3;0.8" dur="1.7s" repeatCount="indefinite"/>
      </line>
      <line x1="1" y1="4" x2="-1" y2="2" stroke="url(#education-gradient)" stroke-width="1">
        <animate attributeName="opacity" values="0.8;0.3;0.8" dur="1.3s" repeatCount="indefinite"/>
      </line>
    </g>
  </g>
</svg>