<svg width="80" height="80" viewBox="0 0 80 80" fill="none" xmlns="http://www.w3.org/2000/svg">
  <defs>
    <linearGradient id="financial-gradient" x1="0%" y1="0%" x2="100%" y2="100%">
      <stop offset="0%" stop-color="#8b5cf6" />
      <stop offset="100%" stop-color="#7c3aed" />
    </linearGradient>
  </defs>
  
  <!-- Bank building base -->
  <rect x="20" y="35" width="40" height="35" fill="url(#financial-gradient)" opacity="0.3" rx="2"/>
  <rect x="20" y="35" width="40" height="35" stroke="url(#financial-gradient)" stroke-width="2" fill="none" rx="2"/>
  
  <!-- Bank columns -->
  <rect x="25" y="40" width="4" height="25" fill="url(#financial-gradient)" opacity="0.8"/>
  <rect x="33" y="40" width="4" height="25" fill="url(#financial-gradient)" opacity="0.8"/>
  <rect x="41" y="40" width="4" height="25" fill="url(#financial-gradient)" opacity="0.8"/>
  <rect x="49" y="40" width="4" height="25" fill="url(#financial-gradient)" opacity="0.8"/>
  
  <!-- Bank roof/triangle -->
  <path d="M15 35 L40 20 L65 35 Z" fill="url(#financial-gradient)" opacity="0.6"/>
  <path d="M15 35 L40 20 L65 35 Z" stroke="url(#financial-gradient)" stroke-width="2" fill="none"/>
  
  <!-- Dollar sign -->
  <g transform="translate(35, 45)">
    <circle cx="5" cy="10" r="8" fill="url(#financial-gradient)" opacity="0.2"/>
    <path d="M5 2 L5 18" stroke="url(#financial-gradient)" stroke-width="2"/>
    <path d="M2 6 Q5 4 8 6 Q5 8 2 10 Q5 12 8 14" stroke="url(#financial-gradient)" stroke-width="2" fill="none"/>
  </g>
  
  <!-- Coins -->
  <g opacity="0.7">
    <circle cx="65" cy="25" r="6" fill="url(#financial-gradient)" opacity="0.6">
      <animate attributeName="cy" values="25;20;25" dur="2s" repeatCount="indefinite"/>
    </circle>
    <text x="65" y="28" text-anchor="middle" fill="#ffffff" font-size="8" font-weight="bold">$</text>
    
    <circle cx="15" cy="50" r="5" fill="url(#financial-gradient)" opacity="0.5">
      <animate attributeName="cy" values="50;45;50" dur="2.5s" repeatCount="indefinite"/>
    </circle>
    <text x="15" y="52" text-anchor="middle" fill="#ffffff" font-size="6" font-weight="bold">€</text>
  </g>
  
  <!-- Growth chart -->
  <g transform="translate(10, 10)" opacity="0.6">
    <polyline points="0,15 5,12 10,8 15,5 20,3" stroke="url(#financial-gradient)" stroke-width="2" fill="none"/>
    <circle cx="20" cy="3" r="2" fill="url(#financial-gradient)">
      <animate attributeName="r" values="2;3;2" dur="1.5s" repeatCount="indefinite"/>
    </circle>
    <!-- Arrow up -->
    <path d="M18 5 L20 3 L22 5" stroke="url(#financial-gradient)" stroke-width="1.5" fill="none"/>
  </g>
  
  <!-- Credit card -->
  <g transform="translate(50, 55)" opacity="0.8">
    <rect x="0" y="0" width="20" height="12" fill="url(#financial-gradient)" opacity="0.4" rx="2"/>
    <rect x="0" y="0" width="20" height="12" stroke="url(#financial-gradient)" stroke-width="1" fill="none" rx="2"/>
    <rect x="2" y="3" width="16" height="2" fill="url(#financial-gradient)" opacity="0.8"/>
    <rect x="2" y="7" width="6" height="1" fill="url(#financial-gradient)" opacity="0.6"/>
    <rect x="10" y="7" width="8" height="1" fill="url(#financial-gradient)" opacity="0.6"/>
  </g>
  
  <!-- Money bills floating -->
  <g opacity="0.5">
    <rect x="5" y="25" width="8" height="4" fill="url(#financial-gradient)" opacity="0.6" rx="1">
      <animateTransform attributeName="transform" type="rotate" values="0 9 27;10 9 27;0 9 27" dur="3s" repeatCount="indefinite"/>
    </rect>
    <rect x="68" y="60" width="6" height="3" fill="url(#financial-gradient)" opacity="0.6" rx="1">
      <animateTransform attributeName="transform" type="rotate" values="0 71 61.5;-10 71 61.5;0 71 61.5" dur="2.5s" repeatCount="indefinite"/>
    </rect>
  </g>
</svg>