<svg
  width="48"
  height="48"
  viewBox="0 0 48 48"
  fill="none"
  xmlns="http://www.w3.org/2000/svg"
>
  <!-- Background gradient circle -->
  <defs>
    <linearGradient id="bgGradient" x1="0%" y1="0%" x2="100%" y2="100%">
      <stop offset="0%" style="stop-color:#3B82F6;stop-opacity:1" />
      <stop offset="50%" style="stop-color:#9333EA;stop-opacity:1" />
      <stop offset="100%" style="stop-color:#EC4899;stop-opacity:1" />
    </linearGradient>
    <filter id="dropShadow" x="-20%" y="-20%" width="140%" height="140%">
      <feDropShadow dx="0" dy="2" stdDeviation="3" flood-color="#000000" flood-opacity="0.3"/>
    </filter>
  </defs>
  
  <!-- Main background -->
  <rect 
    x="0" 
    y="0" 
    width="48" 
    height="48" 
    rx="12" 
    fill="url(#bgGradient)" 
    filter="url(#dropShadow)"
  />
  
  <!-- Artistic F letter -->
  <g transform="translate(14, 12)">
    <!-- Main F structure with artistic curves -->
    <path
      d="M3 2 L3 22 L6 22 L6 14 L14 14 L14 11 L6 11 L6 5 L16 5 L16 2 Z"
      fill="white"
      fill-opacity="0.95"
    />
    
    <!-- Decorative flowing elements -->
    <path
      d="M16 2 Q18 3 17 5 Q16.5 6 16 5"
      stroke="white"
      stroke-width="1.5"
      stroke-opacity="0.7"
      fill="none"
      stroke-linecap="round"
    />
    <path
      d="M14 11 Q16 12 15 14 Q14.5 15 14 14"
      stroke="white"
      stroke-width="1.2"
      stroke-opacity="0.6"
      fill="none"
      stroke-linecap="round"
    />
    
    <!-- Artistic dots -->
    <circle cx="17.5" cy="3.5" r="1" fill="white" fill-opacity="0.8"/>
    <circle cx="15.5" cy="12.5" r="0.8" fill="white" fill-opacity="0.7"/>
  </g>
  
  <!-- Decorative background elements -->
  <circle cx="10" cy="10" r="2" fill="white" fill-opacity="0.15" />
  <circle cx="38" cy="38" r="1.5" fill="white" fill-opacity="0.2" />
  <circle cx="36" cy="12" r="1" fill="white" fill-opacity="0.25" />
</svg>